<?xml version="1.0" standalone="no"?><!DOCTYPE svg PUBLIC "-//W3C//DTD SVG 1.1//EN" "http://www.w3.org/Graphics/SVG/1.1/DTD/svg11.dtd"><svg t="1680665193574" class="icon" viewBox="0 0 1024 1024" version="1.1" xmlns="http://www.w3.org/2000/svg" p-id="1239" width="128" height="128" xmlns:xlink="http://www.w3.org/1999/xlink"><path d="M873.767394 852.441693" fill="#FFFFFF" p-id="1240"></path><path d="M510.567371 64.413032c-247.00565 0-447.24416 200.236464-447.24416 447.24416S263.560698 958.902376 510.567371 958.902376c94.481861 0 182.116781-29.296233 254.322289-79.300091-0.151449-0.054235-0.293689-0.11768-0.445138-0.171915 7.319709-5.901407 12.010545-14.936177 12.010545-25.069979 0-17.774829-14.404058-32.178887-32.17991-32.178887-9.717316 0-18.424628 4.314259-24.327058 11.124362-0.01535-0.054235-0.038886-0.102331-0.054235-0.156566-60.0824 39.025828-131.771139 61.701271-208.753441 61.701271-211.946157 0-383.761314-171.817204-383.761314-383.76643 0-211.94411 171.816181-383.761314 383.761314-383.761314 211.94411 0 383.760291 171.817204 383.760291 383.761314 0 87.044472-28.984125 167.316703-77.819366 231.699036-6.610558 5.892197-10.778484 14.473643-10.778484 24.02416 0 17.770735 14.404058 32.17991 32.17991 32.17991 8.271384 0 15.815197-3.127224 21.518083-8.258081 0.005117 0.024559 0.01535 0.044002 0.01842 0.068562 0.083911-0.102331 0.161682-0.204661 0.245593-0.308015 2.62785-2.424212 4.856611-5.27719 6.566556-8.452509 57.082066-75.097372 90.982154-168.775938 90.982154-270.381034C957.812555 264.649496 757.574045 64.413032 510.567371 64.413032z" fill="#272636" p-id="1241"></path><path d="M284.899702 638.201284 490.980267 762.180969 490.980267 519.241938 284.899702 395.258159Z" fill="#272636" p-id="1242"></path><path d="M504.383532 260.072247 310.031079 360.600825 511.162936 487.178685 712.290699 383.848295Z" fill="#272636" p-id="1243"></path><path d="M533.799492 518.124488 533.799492 761.063519 735.00298 657.734152 735.007073 657.734152 735.007073 414.795121Z" fill="#272636" p-id="1244"></path></svg>