<?xml version="1.0" standalone="no"?><!DOCTYPE svg PUBLIC "-//W3C//DTD SVG 1.1//EN" "http://www.w3.org/Graphics/SVG/1.1/DTD/svg11.dtd"><svg t="1685872106149" class="icon" viewBox="0 0 1024 1024" version="1.1" xmlns="http://www.w3.org/2000/svg" p-id="1266" width="32" height="32" xmlns:xlink="http://www.w3.org/1999/xlink"><path d="M837.5 64h-480c-55 0-100 45-100 100v46h40v-46a60.3 60.3 0 0 1 60-60h480a60.3 60.3 0 0 1 60 60v550a60.3 60.3 0 0 1-60 60h-80v40h80c55 0 100-45 100-100V164c0-55-45-100-100-100z" p-id="1267" fill="#2c2c2c"></path><path d="M667.5 250a60.3 60.3 0 0 1 60 60v550a60.3 60.3 0 0 1-60 60h-480a60.3 60.3 0 0 1-60-60V310a60.3 60.3 0 0 1 60-60h480m0-40h-480c-55 0-100 45-100 100v550c0 55 45 100 100 100h480c55 0 100-45 100-100V310c0-55-45-100-100-100z" p-id="1268" fill="#2c2c2c"></path><path d="M512.35 578a20.07 20.07 0 0 0-28.28 0l-37.36 37.36V402.8a20 20 0 0 0-40 0v211L370.93 578a20 20 0 1 0-28.28 28.29l67.15 67.15a20 20 0 0 0 16.91 9.39h0.38a19.92 19.92 0 0 0 14.55-5.83l70.71-70.71a20.06 20.06 0 0 0 0-28.29z" p-id="1269" fill="#2c2c2c"></path><path d="M237.5 747.2m20 0l340 0q20 0 20 20l0 0q0 20-20 20l-340 0q-20 0-20-20l0 0q0-20 20-20Z" p-id="1270" fill="#2c2c2c"></path></svg>