<svg data-v-70b83f88="" version="1.0" xmlns="http://www.w3.org/2000/svg" xmlns:xlink="http://www.w3.org/1999/xlink" width="100%" height="100%" viewBox="0 0 340.000000 250.000000" preserveAspectRatio="xMidYMid meet" color-interpolation-filters="sRGB" style="margin: auto;"> <rect data-v-70b83f88="" x="0" y="0" width="100%" height="100%" fill="#FFFFFF" fill-opacity="1" class="background"></rect> <rect data-v-70b83f88="" x="0" y="0" width="100%" height="100%" fill="url(#watermark)" fill-opacity="1" class="watermarklayer"></rect> <g data-v-70b83f88="" fill="#a1c4fd" class="icon-text-wrapper icon-svg-group iconsvg" transform="translate(120,75)"><g fill="#333" class="iconsvg-imagesvg icon_container" transform="translate(0,0)" mask="url(#e105c7da-4b79-4d1a-b21f-8867dd58ad41)"><rect fill="#a1c4fd" fill-opacity="0" stroke-width="2" x="0" y="0" width="100" height="100" class="image-rect"></rect> <svg viewBox="0 0 60 60" x="0" y="0" width="100" height="100" class="image-svg-svg bn" style="overflow: visible;"><g hollow-target="iconBnFill" mask="url(#b1dba5f2-48ef-4a47-982d-89f794b2b4e3)"><g><svg fill="#000000" xmlns="http://www.w3.org/2000/svg" xmlns:xlink="http://www.w3.org/1999/xlink" xml:space="preserve" version="1.1" style="shape-rendering: geometricprecision; text-rendering: geometricprecision; overflow: visible;" viewBox="0 0 249 249" x="0" y="0" fill-rule="evenodd" clip-rule="evenodd" width="60" height="60" filtersec="colorsf3770273323" filter="url(#9mAsqvRGJpaNRwwztLAKL)"><g transform="scale(1, 1) skewX(0)"><defs><filter id="9mAsqvRGJpaNRwwztLAKL"><feColorMatrix type="matrix" values="0 0 0 0 0.19921875  0 0 0 0 0.19921875  0 0 0 0 0.19921875  0 0 0 1 0"></feColorMatrix></filter></defs><g><path class="fil0" d="M125 0c68,0 124,56 124,125 0,68 -56,124 -124,124 -69,0 -125,-56 -125,-124 0,-69 56,-125 125,-125z"></path></g></g></svg></g> <g filter="url(#colors929042182)"><svg xmlns="http://www.w3.org/2000/svg" xmlns:xlink="http://www.w3.org/1999/xlink" viewBox="0 0 41.760000000000005 43.2" width="45" height="45" x="7.5" y="7.5" class="image-svg-letter"><path transform="translate(0 43.2)" d="M6.41-37.01L6.41-37.01Q8.57-39.17 10.80-40.43Q13.03-41.69 14.90-42.26L14.90-42.26Q17.06-42.98 19.08-43.20L19.08-43.20L19.08 0Q17.42-0.22 16.31-0.50Q15.19-0.79 13.61-1.37L13.61-1.37L13.61-18.43L5.76-18.43Q6.12-16.99 6.55-15.84Q6.98-14.69 7.42-13.90L7.42-13.90Q7.92-12.89 8.50-12.10L8.50-12.10L4.61-8.21Q3.31-9.79 2.30-11.88L2.30-11.88Q1.44-13.68 0.72-16.13Q0-18.58 0-21.60L0-21.60Q0-23.11 0.29-25.02Q0.58-26.93 1.30-28.94Q2.02-30.96 3.24-33.01Q4.46-35.06 6.41-37.01ZM5.69-24.34L13.61-24.34L13.61-35.71Q13.03-35.35 12.46-34.99L12.46-34.99Q11.38-34.27 10.22-33.12L10.22-33.12Q8.86-31.75 7.52-29.56Q6.19-27.36 5.69-24.34L5.69-24.34ZM35.35-37.01L35.35-37.01Q37.22-35.14 38.48-33.08Q39.74-31.03 40.46-29.02Q41.18-27.00 41.47-25.09Q41.76-23.18 41.76-21.60L41.76-21.60Q41.76-20.02 41.51-18.18Q41.26-16.34 40.57-14.33Q39.89-12.31 38.63-10.26Q37.37-8.21 35.35-6.19L35.35-6.19Q33.19-4.03 30.96-2.81Q28.73-1.58 26.86-0.94L26.86-0.94Q24.70-0.22 22.68 0L22.68 0L22.68-43.20Q24.70-42.98 26.86-42.26L26.86-42.26Q28.73-41.62 31.00-40.39Q33.26-39.17 35.35-37.01ZM28.15-35.78L28.15-7.49Q28.73-7.85 29.30-8.28L29.30-8.28Q29.81-8.64 30.38-9.07Q30.96-9.50 31.54-10.08L31.54-10.08Q33.05-11.59 33.98-13.21Q34.92-14.83 35.42-16.34Q35.93-17.86 36.11-19.22Q36.29-20.59 36.29-21.60L36.29-21.60Q36.29-26.14 34.13-29.77Q31.97-33.41 28.15-35.78L28.15-35.78Z"></path></svg></g></g><mask id="b1dba5f2-48ef-4a47-982d-89f794b2b4e3"><g fill="white"><svg xmlns="http://www.w3.org/2000/svg" xmlns:xlink="http://www.w3.org/1999/xlink" xml:space="preserve" version="1.1" style="shape-rendering: geometricprecision; text-rendering: geometricprecision; overflow: visible;" viewBox="0 0 249 249" x="0" y="0" fill-rule="evenodd" clip-rule="evenodd" width="60" height="60" filtersec="colorsf3770273323"><g transform="scale(1, 1) skewX(0)"><defs></defs><g><path d="M125 0c68,0 124,56 124,125 0,68 -56,124 -124,124 -69,0 -125,-56 -125,-124 0,-69 56,-125 125,-125z"></path></g></g></svg></g> <g fill="black"><svg xmlns="http://www.w3.org/2000/svg" xmlns:xlink="http://www.w3.org/1999/xlink" viewBox="0 0 41.760000000000005 43.2" width="45" height="45" x="7.5" y="7.5" class="image-svg-letter"><path transform="translate(0 43.2)" d="M6.41-37.01L6.41-37.01Q8.57-39.17 10.80-40.43Q13.03-41.69 14.90-42.26L14.90-42.26Q17.06-42.98 19.08-43.20L19.08-43.20L19.08 0Q17.42-0.22 16.31-0.50Q15.19-0.79 13.61-1.37L13.61-1.37L13.61-18.43L5.76-18.43Q6.12-16.99 6.55-15.84Q6.98-14.69 7.42-13.90L7.42-13.90Q7.92-12.89 8.50-12.10L8.50-12.10L4.61-8.21Q3.31-9.79 2.30-11.88L2.30-11.88Q1.44-13.68 0.72-16.13Q0-18.58 0-21.60L0-21.60Q0-23.11 0.29-25.02Q0.58-26.93 1.30-28.94Q2.02-30.96 3.24-33.01Q4.46-35.06 6.41-37.01ZM5.69-24.34L13.61-24.34L13.61-35.71Q13.03-35.35 12.46-34.99L12.46-34.99Q11.38-34.27 10.22-33.12L10.22-33.12Q8.86-31.75 7.52-29.56Q6.19-27.36 5.69-24.34L5.69-24.34ZM35.35-37.01L35.35-37.01Q37.22-35.14 38.48-33.08Q39.74-31.03 40.46-29.02Q41.18-27.00 41.47-25.09Q41.76-23.18 41.76-21.60L41.76-21.60Q41.76-20.02 41.51-18.18Q41.26-16.34 40.57-14.33Q39.89-12.31 38.63-10.26Q37.37-8.21 35.35-6.19L35.35-6.19Q33.19-4.03 30.96-2.81Q28.73-1.58 26.86-0.94L26.86-0.94Q24.70-0.22 22.68 0L22.68 0L22.68-43.20Q24.70-42.98 26.86-42.26L26.86-42.26Q28.73-41.62 31.00-40.39Q33.26-39.17 35.35-37.01ZM28.15-35.78L28.15-7.49Q28.73-7.85 29.30-8.28L29.30-8.28Q29.81-8.64 30.38-9.07Q30.96-9.50 31.54-10.08L31.54-10.08Q33.05-11.59 33.98-13.21Q34.92-14.83 35.42-16.34Q35.93-17.86 36.11-19.22Q36.29-20.59 36.29-21.60L36.29-21.60Q36.29-26.14 34.13-29.77Q31.97-33.41 28.15-35.78L28.15-35.78Z"></path></svg></g></mask></svg> <defs><filter id="colors929042182"><feColorMatrix type="matrix" values="0 0 0 0 0.19921875  0 0 0 0 0.19921875  0 0 0 0 0.19921875  0 0 0 1 0" class="icon-fecolormatrix"></feColorMatrix></filter> <filter id="colorsf3770273323"><feColorMatrix type="matrix" values="0 0 0 0 0.99609375  0 0 0 0 0.99609375  0 0 0 0 0.99609375  0 0 0 1 0" class="icon-fecolormatrix"></feColorMatrix></filter> <filter id="colorsb2718348739"><feColorMatrix type="matrix" values="0 0 0 0 0  0 0 0 0 0  0 0 0 0 0  0 0 0 1 0" class="icon-fecolormatrix"></feColorMatrix></filter></defs><rect v-gra="id" width="112" height="112" transform="translate(-6, -6)" style="pointer-events:none;" fill="url(#GgstLVLLyQyc4UiuiTtSf)"></rect></g> <g transform="translate(50,107)"><g data-gra="path-name" fill-rule="" class="tp-name iconsvg-namesvg" fill="url(#8b0c5eb4-84d4-4ea1-9cad-71fe521d9025)"><g transform="scale(1)"><g><path d="" transform="translate(0, 0)"></path></g> <!----> <!----> <!----> <!----> <!----> <!----> <!----></g></g> <!----></g></g><defs v-gra="od"><linearGradient x1="0" y1="1" x2="0" y2="0" id="8b0c5eb4-84d4-4ea1-9cad-71fe521d9025"><stop offset="0%" stop-color="#a1c4fd"></stop><stop offset="100%" stop-color="#c2e9fb"></stop></linearGradient><filter id="42443b3f1de60f6b6fd3b6a9844b4764" filterUnits="userSpaceOnUse"><feColorMatrix type="matrix" values="0 0 0 0 0.99609375  0 0 0 0 0.99609375  0 0 0 0 0.99609375  0 0 0 1 0"></feColorMatrix></filter></defs><defs v-gra="id"><filter id="3ab84c0c-4efe-4f21-80d9-e7f1885645af" filterUnits="userSpaceOnUse"><feColorMatrix type="matrix" values="0 0 0 0 0.99609375  0 0 0 0 0.99609375  0 0 0 0 0.99609375  0 0 0 1 0"></feColorMatrix></filter><linearGradient x1="0" y1="1" x2="0" y2="0" id="GgstLVLLyQyc4UiuiTtSf"><stop offset="0%" stop-color="#a1c4fd"></stop><stop offset="100%" stop-color="#c2e9fb"></stop></linearGradient><filter id="42443b3f1de60f6b6fd3b6a9844b4764" filterUnits="userSpaceOnUse"><feColorMatrix type="matrix" values="0 0 0 0 0.99609375  0 0 0 0 0.99609375  0 0 0 0 0.99609375  0 0 0 1 0"></feColorMatrix></filter></defs><mask v-gra="im" id="e105c7da-4b79-4d1a-b21f-8867dd58ad41"><g fill="#333" class="iconsvg-imagesvg icon_container" filter="url(#3ab84c0c-4efe-4f21-80d9-e7f1885645af)"><rect fill="#a1c4fd" fill-opacity="0" stroke-width="2" x="0" y="0" width="100" height="100" class="image-rect"></rect> <svg viewBox="0 0 60 60" x="0" y="0" width="100" height="100" class="image-svg-svg bn" style="overflow: visible;"><g hollow-target="iconBnFill" mask="url(#b1dba5f2-48ef-4a47-982d-89f794b2b4e3)"><g><svg fill="#000000" xmlns="http://www.w3.org/2000/svg" xmlns:xlink="http://www.w3.org/1999/xlink" xml:space="preserve" version="1.1" style="shape-rendering: geometricprecision; text-rendering: geometricprecision; overflow: visible;" viewBox="0 0 249 249" x="0" y="0" fill-rule="evenodd" clip-rule="evenodd" width="60" height="60" filtersec="colorsf3770273323"><g transform="scale(1, 1) skewX(0)"><defs><filter id="9mAsqvRGJpaNRwwztLAKL"><feColorMatrix type="matrix" values="0 0 0 0 0.19921875  0 0 0 0 0.19921875  0 0 0 0 0.19921875  0 0 0 1 0"></feColorMatrix></filter></defs><g><path class="fil0" d="M125 0c68,0 124,56 124,125 0,68 -56,124 -124,124 -69,0 -125,-56 -125,-124 0,-69 56,-125 125,-125z"></path></g></g></svg></g> <g><svg xmlns="http://www.w3.org/2000/svg" xmlns:xlink="http://www.w3.org/1999/xlink" viewBox="0 0 41.760000000000005 43.2" width="45" height="45" x="7.5" y="7.5" class="image-svg-letter"><path transform="translate(0 43.2)" d="M6.41-37.01L6.41-37.01Q8.57-39.17 10.80-40.43Q13.03-41.69 14.90-42.26L14.90-42.26Q17.06-42.98 19.08-43.20L19.08-43.20L19.08 0Q17.42-0.22 16.31-0.50Q15.19-0.79 13.61-1.37L13.61-1.37L13.61-18.43L5.76-18.43Q6.12-16.99 6.55-15.84Q6.98-14.69 7.42-13.90L7.42-13.90Q7.92-12.89 8.50-12.10L8.50-12.10L4.61-8.21Q3.31-9.79 2.30-11.88L2.30-11.88Q1.44-13.68 0.72-16.13Q0-18.58 0-21.60L0-21.60Q0-23.11 0.29-25.02Q0.58-26.93 1.30-28.94Q2.02-30.96 3.24-33.01Q4.46-35.06 6.41-37.01ZM5.69-24.34L13.61-24.34L13.61-35.71Q13.03-35.35 12.46-34.99L12.46-34.99Q11.38-34.27 10.22-33.12L10.22-33.12Q8.86-31.75 7.52-29.56Q6.19-27.36 5.69-24.34L5.69-24.34ZM35.35-37.01L35.35-37.01Q37.22-35.14 38.48-33.08Q39.74-31.03 40.46-29.02Q41.18-27.00 41.47-25.09Q41.76-23.18 41.76-21.60L41.76-21.60Q41.76-20.02 41.51-18.18Q41.26-16.34 40.57-14.33Q39.89-12.31 38.63-10.26Q37.37-8.21 35.35-6.19L35.35-6.19Q33.19-4.03 30.96-2.81Q28.73-1.58 26.86-0.94L26.86-0.94Q24.70-0.22 22.68 0L22.68 0L22.68-43.20Q24.70-42.98 26.86-42.26L26.86-42.26Q28.73-41.62 31.00-40.39Q33.26-39.17 35.35-37.01ZM28.15-35.78L28.15-7.49Q28.73-7.85 29.30-8.28L29.30-8.28Q29.81-8.64 30.38-9.07Q30.96-9.50 31.54-10.08L31.54-10.08Q33.05-11.59 33.98-13.21Q34.92-14.83 35.42-16.34Q35.93-17.86 36.11-19.22Q36.29-20.59 36.29-21.60L36.29-21.60Q36.29-26.14 34.13-29.77Q31.97-33.41 28.15-35.78L28.15-35.78Z"></path></svg></g></g><mask id="b1dba5f2-48ef-4a47-982d-89f794b2b4e3"><g fill="white"><svg xmlns="http://www.w3.org/2000/svg" xmlns:xlink="http://www.w3.org/1999/xlink" xml:space="preserve" version="1.1" style="shape-rendering: geometricprecision; text-rendering: geometricprecision; overflow: visible;" viewBox="0 0 249 249" x="0" y="0" fill-rule="evenodd" clip-rule="evenodd" width="60" height="60" filtersec="colorsf3770273323"><g transform="scale(1, 1) skewX(0)"><defs></defs><g><path d="M125 0c68,0 124,56 124,125 0,68 -56,124 -124,124 -69,0 -125,-56 -125,-124 0,-69 56,-125 125,-125z"></path></g></g></svg></g> <g fill="black"><svg xmlns="http://www.w3.org/2000/svg" xmlns:xlink="http://www.w3.org/1999/xlink" viewBox="0 0 41.760000000000005 43.2" width="45" height="45" x="7.5" y="7.5" class="image-svg-letter"><path transform="translate(0 43.2)" d="M6.41-37.01L6.41-37.01Q8.57-39.17 10.80-40.43Q13.03-41.69 14.90-42.26L14.90-42.26Q17.06-42.98 19.08-43.20L19.08-43.20L19.08 0Q17.42-0.22 16.31-0.50Q15.19-0.79 13.61-1.37L13.61-1.37L13.61-18.43L5.76-18.43Q6.12-16.99 6.55-15.84Q6.98-14.69 7.42-13.90L7.42-13.90Q7.92-12.89 8.50-12.10L8.50-12.10L4.61-8.21Q3.31-9.79 2.30-11.88L2.30-11.88Q1.44-13.68 0.72-16.13Q0-18.58 0-21.60L0-21.60Q0-23.11 0.29-25.02Q0.58-26.93 1.30-28.94Q2.02-30.96 3.24-33.01Q4.46-35.06 6.41-37.01ZM5.69-24.34L13.61-24.34L13.61-35.71Q13.03-35.35 12.46-34.99L12.46-34.99Q11.38-34.27 10.22-33.12L10.22-33.12Q8.86-31.75 7.52-29.56Q6.19-27.36 5.69-24.34L5.69-24.34ZM35.35-37.01L35.35-37.01Q37.22-35.14 38.48-33.08Q39.74-31.03 40.46-29.02Q41.18-27.00 41.47-25.09Q41.76-23.18 41.76-21.60L41.76-21.60Q41.76-20.02 41.51-18.18Q41.26-16.34 40.57-14.33Q39.89-12.31 38.63-10.26Q37.37-8.21 35.35-6.19L35.35-6.19Q33.19-4.03 30.96-2.81Q28.73-1.58 26.86-0.94L26.86-0.94Q24.70-0.22 22.68 0L22.68 0L22.68-43.20Q24.70-42.98 26.86-42.26L26.86-42.26Q28.73-41.62 31.00-40.39Q33.26-39.17 35.35-37.01ZM28.15-35.78L28.15-7.49Q28.73-7.85 29.30-8.28L29.30-8.28Q29.81-8.64 30.38-9.07Q30.96-9.50 31.54-10.08L31.54-10.08Q33.05-11.59 33.98-13.21Q34.92-14.83 35.42-16.34Q35.93-17.86 36.11-19.22Q36.29-20.59 36.29-21.60L36.29-21.60Q36.29-26.14 34.13-29.77Q31.97-33.41 28.15-35.78L28.15-35.78Z"></path></svg></g></mask></svg> <defs><filter id="colors929042182"><feColorMatrix type="matrix" values="0 0 0 0 0.19921875  0 0 0 0 0.19921875  0 0 0 0 0.19921875  0 0 0 1 0" class="icon-fecolormatrix"></feColorMatrix></filter> <filter id="colorsf3770273323"><feColorMatrix type="matrix" values="0 0 0 0 0.99609375  0 0 0 0 0.99609375  0 0 0 0 0.99609375  0 0 0 1 0" class="icon-fecolormatrix"></feColorMatrix></filter> <filter id="colorsb2718348739"><feColorMatrix type="matrix" values="0 0 0 0 0  0 0 0 0 0  0 0 0 0 0  0 0 0 1 0" class="icon-fecolormatrix"></feColorMatrix></filter></defs></g></mask></svg>