<?xml version="1.0" standalone="no"?><!DOCTYPE svg PUBLIC "-//W3C//DTD SVG 1.1//EN" "http://www.w3.org/Graphics/SVG/1.1/DTD/svg11.dtd"><svg t="1680665221891" class="icon" viewBox="0 0 1024 1024" version="1.1" xmlns="http://www.w3.org/2000/svg" p-id="1978" width="128" height="128" xmlns:xlink="http://www.w3.org/1999/xlink"><path d="M916.5 888.05h-809a90.1 90.1 0 0 1-90-90V227.93a90.1 90.1 0 0 1 90-90h809a90.1 90.1 0 0 1 90 90v570.12a90.1 90.1 0 0 1-90 90z m-809-690.12a30 30 0 0 0-30 30v570.12a30 30 0 0 0 30 30h809a30 30 0 0 0 30-30V227.93a30 30 0 0 0-30-30z" p-id="1979"></path><path d="M976.5 341.5h-929a30 30 0 0 1 0-60h929a30 30 0 0 1 0 60zM441.37 794.51a30 30 0 0 1-28.52-39.33l118-361a30 30 0 1 1 57 18.64l-118 361a30 30 0 0 1-28.48 20.69zM151.19 623.38a30 30 0 0 1-16.43-55.12l167.43-109.39A30 30 0 0 1 335 509.1L167.57 618.49a29.83 29.83 0 0 1-16.38 4.89z" p-id="1980"></path><path d="M329.81 714a29.81 29.81 0 0 1-13.52-3.24l-178.45-90.3a30 30 0 0 1 27.09-53.54l178.45 90.31A30 30 0 0 1 329.81 714zM705.43 714A30 30 0 0 1 689 658.9l167.43-109.39a30 30 0 1 1 32.81 50.23L721.81 709.13a29.83 29.83 0 0 1-16.38 4.87z" p-id="1981"></path><path d="M872.59 604.3a29.84 29.84 0 0 1-13.52-3.24l-178.45-90.31a30 30 0 1 1 27.09-53.53l178.45 90.3a30 30 0 0 1-13.57 56.78z" p-id="1982"></path></svg>