<?xml version="1.0" standalone="no"?><!DOCTYPE svg PUBLIC "-//W3C//DTD SVG 1.1//EN" "http://www.w3.org/Graphics/SVG/1.1/DTD/svg11.dtd"><svg t="1680665235983" class="icon" viewBox="0 0 1024 1024" version="1.1" xmlns="http://www.w3.org/2000/svg" p-id="2322" width="128" height="128" xmlns:xlink="http://www.w3.org/1999/xlink"><path d="M329.9 669.1m-98.7 0a98.7 98.7 0 1 0 197.4 0 98.7 98.7 0 1 0-197.4 0Z" fill="#2c2c2c" p-id="2323"></path><path d="M329.9 776.5c-59.2 0-107.4-48.2-107.4-107.4s48.2-107.4 107.4-107.4 107.4 48.2 107.4 107.4-48.2 107.4-107.4 107.4z m0-197.4c-49.6 0-90 40.4-90 90s40.4 90 90 90 90-40.4 90-90-40.4-90-90-90z" fill="#2c2c2c" p-id="2324"></path><path d="M890.6 876.5h-17.7c-4.8 0-8.7-3.9-8.7-8.7s3.9-8.7 8.7-8.7h17.7c10.7 0 19.5-8.7 19.5-19.5V143.3c0-10.7-8.7-19.5-19.5-19.5H136.4c-10.7 0-19.5 8.7-19.5 19.5v696.3c0 10.7 8.7 19.5 19.5 19.5h17.2c4.8 0 8.7 3.9 8.7 8.7s-3.9 8.7-8.7 8.7h-17.2c-20.3 0-36.8-16.5-36.8-36.8V143.3c0-20.3 16.5-36.8 36.8-36.8h754.2c20.3 0 36.8 16.5 36.8 36.8v696.3c0 20.4-16.5 36.9-36.8 36.9z" fill="#2c2c2c" p-id="2325"></path><path d="M466.1 809.9h-267c-2.2 0-4 1.8-4 4v97.3h275v-97.3c0-2.2-1.8-4-4-4z" fill="#2c2c2c" p-id="2326"></path><path d="M478.8 919.9H186.4v-52.4c0-36.6 29.7-66.3 66.3-66.3h159.7c36.6 0 66.3 29.7 66.3 66.3v52.4z m-275-17.4h257.6v-35c0-27-22-48.9-48.9-48.9H252.7c-27 0-48.9 22-48.9 48.9v35z" fill="#2c2c2c" p-id="2327"></path><path d="M691.7 669.1m-98.7 0a98.7 98.7 0 1 0 197.4 0 98.7 98.7 0 1 0-197.4 0Z" fill="#2c2c2c" p-id="2328"></path><path d="M691.7 776.5c-59.2 0-107.4-48.2-107.4-107.4s48.2-107.4 107.4-107.4 107.4 48.2 107.4 107.4-48.2 107.4-107.4 107.4z m0-197.4c-49.6 0-90 40.4-90 90s40.4 90 90 90 90-40.4 90-90-40.3-90-90-90z" fill="#2c2c2c" p-id="2329"></path><path d="M827.9 809.9h-267c-2.2 0-4 1.8-4 4v97.3h275v-97.3c0-2.2-1.8-4-4-4z" fill="#2c2c2c" p-id="2330"></path><path d="M840.6 919.9H548.2v-52.4c0-36.6 29.7-66.3 66.3-66.3h159.7c36.6 0 66.3 29.7 66.3 66.3v52.4z m-275-17.4h257.6v-35c0-27-22-48.9-48.9-48.9H614.5c-27 0-48.9 22-48.9 48.9v35z" fill="#2c2c2c" p-id="2331"></path><path d="M238.5 404.7l188.1-130.3 173.7 144.7L803 274.4" fill="#2c2c2c" p-id="2332"></path><path d="M599.9 430.1L426.2 285.3 243.4 411.8c-3.9 2.7-9.3 1.7-12.1-2.2-2.7-3.9-1.7-9.3 2.2-12.1l193.6-134 173.6 144.7 197.2-140.8c3.9-2.8 9.3-1.9 12.1 2 2.8 3.9 1.9 9.3-2 12.1L599.9 430.1z" fill="#2c2c2c" p-id="2333"></path><path d="M238.5 404.7m-43.4 0a43.4 43.4 0 1 0 86.8 0 43.4 43.4 0 1 0-86.8 0Z" fill="#2c2c2c" p-id="2334"></path><path d="M238.5 456.8c-28.7 0-52.1-23.4-52.1-52.1 0-28.7 23.4-52.1 52.1-52.1s52.1 23.4 52.1 52.1c0 28.7-23.4 52.1-52.1 52.1z m0-86.9c-19.2 0-34.7 15.6-34.7 34.7 0 19.2 15.6 34.7 34.7 34.7s34.7-15.6 34.7-34.7-15.6-34.7-34.7-34.7z" fill="#2c2c2c" p-id="2335"></path><path d="M426.6 274.4m-43.4 0a43.4 43.4 0 1 0 86.8 0 43.4 43.4 0 1 0-86.8 0Z" fill="#2c2c2c" p-id="2336"></path><path d="M426.6 326.5c-28.7 0-52.1-23.4-52.1-52.1s23.4-52.1 52.1-52.1c28.7 0 52.1 23.4 52.1 52.1s-23.3 52.1-52.1 52.1z m0-86.8c-19.2 0-34.7 15.6-34.7 34.7s15.6 34.7 34.7 34.7c19.2 0 34.7-15.6 34.7-34.7s-15.5-34.7-34.7-34.7z" fill="#2c2c2c" p-id="2337"></path><path d="M600.3 419.1m-43.4 0a43.4 43.4 0 1 0 86.8 0 43.4 43.4 0 1 0-86.8 0Z" fill="#2c2c2c" p-id="2338"></path><path d="M600.3 471.2c-28.7 0-52.1-23.4-52.1-52.1 0-28.7 23.4-52.1 52.1-52.1s52.1 23.4 52.1 52.1c0 28.8-23.3 52.1-52.1 52.1z m0-86.8c-19.2 0-34.7 15.6-34.7 34.7 0 19.2 15.6 34.7 34.7 34.7s34.7-15.6 34.7-34.7c0.1-19.1-15.5-34.7-34.7-34.7z" fill="#2c2c2c" p-id="2339"></path><path d="M803 274.4m-43.4 0a43.4 43.4 0 1 0 86.8 0 43.4 43.4 0 1 0-86.8 0Z" fill="#2c2c2c" p-id="2340"></path><path d="M803 326.5c-28.7 0-52.1-23.4-52.1-52.1s23.4-52.1 52.1-52.1c28.7 0 52.1 23.4 52.1 52.1s-23.4 52.1-52.1 52.1z m0-86.8c-19.2 0-34.7 15.6-34.7 34.7s15.6 34.7 34.7 34.7 34.7-15.6 34.7-34.7-15.6-34.7-34.7-34.7z" fill="#2c2c2c" p-id="2341"></path></svg>